<svg width="371" height="362" viewBox="0 0 371 362" fill="none" xmlns="http://www.w3.org/2000/svg">
<path d="M185.5 0C83.0731 0 0 83.0576 0 185.5C0 267.46 53.1457 336.992 126.867 361.524C136.126 363.24 139.125 357.489 139.125 352.605V318.071C87.5251 329.293 76.7815 296.182 76.7815 296.182C68.3413 274.741 56.1756 269.037 56.1756 269.037C39.3415 257.52 57.4586 257.768 57.4586 257.768C76.0859 259.066 85.8865 276.89 85.8865 276.89C102.427 305.24 129.278 297.047 139.867 292.302C141.521 280.321 146.329 272.129 151.646 267.506C110.45 262.792 67.1355 246.885 67.1355 175.823C67.1355 155.557 74.3855 139.017 86.242 126.032C84.3252 121.348 77.9718 102.473 88.0507 76.9361C88.0507 76.9361 103.633 71.9585 139.079 95.9499C153.872 91.838 169.732 89.782 185.5 89.7047C201.268 89.782 217.143 91.838 231.968 95.9499C267.383 71.9585 282.934 76.9361 282.934 76.9361C293.028 102.489 286.675 121.363 284.758 126.032C296.661 139.017 303.849 155.573 303.849 175.823C303.849 247.071 260.457 262.761 219.153 267.352C225.8 273.102 231.875 284.387 231.875 301.7V352.605C231.875 357.536 234.843 363.333 244.257 361.509C317.916 336.945 371 267.429 371 185.5C371 83.0576 287.942 0 185.5 0Z" fill="white"/>
</svg>
